Coordinates
version=1
nRows=8
nColumns=33
inDegrees=yes

Units are S.I. units (second, meters, Newtons, ...)
Angles are in degrees.

endheader
time	ground_thorax_rot_x	ground_thorax_rot_y	ground_thorax_rot_z	ground_thorax_tx	ground_thorax_ty	ground_thorax_tz	clav_prot_r	clav_elev_r	scapula_abduction_r	scapula_elevation_r	scapula_upward_rot_r	scapula_winging_r	shoulder_elv_r	plane_of_elev_r	axial_rot_r	elbow_flexion_r	pro_sup_r	wrist_flex_r	wrist_dev_r	clav_prot_l	clav_elev_l	scapula_abduction_l	scapula_elevation_l	scapula_upward_rot_l	scapula_winging_l	shoulder_elv_l	plane_of_elev_l	axial_rot_l	elbow_flexion_l	pro_sup_l	wrist_flex_l	wrist_dev_l
      3.77000000	     -1.22983580	      1.56910937	     12.91571433	     -0.11680066	      1.02877992	      0.01400016	      9.62868301	    -12.08158346	     17.00032455	     -4.86781574	      0.21137633	     -2.69052561	    -35.61372176	    -73.51980631	    102.63521726	    -78.20622788	   -160.69829559	     40.09152947	    -21.62841426	     11.27844749	     -3.48817473	    -14.65133426	    -17.80988642	    -33.98781001	      0.04195823	     60.13414576	    -27.04108548	      7.22185582	     68.33975602	     13.47549338	      8.16542093	    -22.03145584
      3.78000000	     -1.13128494	      1.45996757	     12.77777952	     -0.11656152	      1.02921746	      0.01412230	      9.42204627	    -11.75290240	     16.82997273	     -4.73082278	      0.60043813	     -2.77595604	    -38.10202737	    -73.82425641	    100.72936381	    -77.38970671	   -157.50667953	     42.30993143	    -23.06507897	     10.65180457	     -3.13431788	    -13.45836177	    -18.01165034	    -33.62996356	     -0.44038559	     60.06748131	    -28.18006784	      6.16049405	     68.54136095	     13.59684088	      6.55275073	    -24.06615145
      3.79000000	     -0.99808998	      1.31548668	     12.92037110	     -0.11691348	      1.02928401	      0.01404920	      9.32914732	    -11.38485645	     16.44877387	     -4.20550601	      0.13531485	     -2.77177850	    -38.65552043	    -74.17427728	    100.68965129	    -77.09006998	   -157.30560251	     42.39271900	    -23.13027091	     10.48123234	     -2.85067052	    -13.20114389	    -18.51626741	    -34.09893334	     -0.64539623	     59.73694363	    -28.95358928	      6.12156164	     68.99364515	     13.58279980	      6.47425457	    -24.26244908
      3.80000000	     -0.83825406	      1.33149228	     12.97298507	     -0.11684800	      1.02927474	      0.01416261	      9.22011475	    -10.90814382	     16.32728628	     -3.84071064	      0.30199475	     -2.93139713	    -41.13974190	    -74.40502323	     98.68977948	    -76.29549480	   -154.12585224	     44.66030425	    -24.31894663	      9.95658549	     -2.47363684	    -12.18535058	    -18.76115724	    -33.79507238	     -1.05489257	     59.65286283	    -29.96907375	      4.81314497	     69.14808824	     14.19783446	      5.02463741	    -24.99999983
      3.81000000	     -0.82330128	      1.15752129	     12.99927667	     -0.11714939	      1.02946400	      0.01407194	      9.15623785	    -10.70546292	     16.05531036	     -3.51791724	     -0.03290211	     -2.89732790	    -41.67212299	    -74.63313196	     98.70883875	    -75.69965472	   -153.96008400	     44.65105434	    -24.36892272	      9.80697630	     -2.22721814	    -11.96074278	    -19.22235647	    -34.23736151	     -1.24444099	     59.38465119	    -30.74892059	      4.91356735	     69.52513633	     14.19081513	      4.91495951	    -24.99999983
      3.82000000	     -0.73330213	      1.06059668	     13.15471587	     -0.11746804	      1.02944416	      0.01401975	      9.07946672	    -10.41828165	     15.72280183	     -3.08451504	     -0.44570617	     -2.86823581	    -42.24358527	    -74.92348297	     98.63927482	    -75.09935702	   -153.60026048	     44.84742720	    -24.45559970	      9.66116992	     -1.96042986	    -11.73780675	    -19.68244249	    -34.63707437	     -1.42863333	     59.09894609	    -31.50049824	      4.68988015	     69.74351232	     14.30079975	      4.74598668	    -24.99999983
      3.83000000	     -0.70082253	      1.22086136	     12.98753535	     -0.11692863	      1.02929798	      0.01420952	      8.76154625	     -9.93109771	     15.37110601	     -2.83461547	      0.00771866	     -2.93877282	    -44.37136237	    -74.68560046	     96.66036570	    -73.95754891	   -150.27020665	     47.49833847	    -24.99999983	      9.19181277	     -1.44093066	    -10.75604758	    -19.96658490	    -34.11951870	     -1.79747336	     59.05750661	    -32.28572823	      3.30023237	     69.81928938	     15.65514974	      2.73243857	    -24.99999983
      3.84000000	     -0.62982929	      1.10554605	     13.00671894	     -0.11736492	      1.02972101	      0.01405189	      8.75835861	     -9.86151957	     15.20726832	     -2.63153581	     -0.32392895	     -2.88958855	    -44.78216790	    -74.93505571	     96.62507365	    -73.09209929	   -150.15600287	     47.43520624	    -24.99999983	      9.08008104	     -1.33926322	    -10.60630553	    -20.26400556	    -34.51719139	     -1.93942524	     58.75793249	    -32.90378475	      3.29722913	     69.68794217	     15.72359410	      2.63712012	    -24.99999983
